<svg xmlns="http://www.w3.org/2000/svg" width="136" height="135" viewBox="0 0 136 135" fill="none"><path d="M21.9051 30.9267C23.7741 20.922 25.6431 10.9131 27.5326 0.805808C28.1966 0.805808 28.8073 0.805808 29.418 0.805808C33.1026 0.805808 36.7914 0.805808 40.4761 0.805808C41.5173 0.805808 42.5461 1.76489 42.6158 2.81004C42.6281 3.01498 42.6158 3.22401 42.6158 3.42894C42.6158 31.0251 42.6158 58.6172 42.5994 86.2133C42.5994 86.7584 42.3822 87.324 42.1649 87.8405C41.8165 88.6766 41.1401 88.8569 40.2466 88.8405C37.0086 88.7832 33.7707 88.8159 30.5328 88.8159C29.3319 88.8159 28.381 87.8774 28.3769 86.6437C28.3646 83.9222 28.3769 81.2007 28.3769 78.4792C28.3769 71.7287 28.3769 64.9782 28.3769 58.2278L28.2621 58.2032C27.8318 60.0476 27.3932 61.892 26.967 63.7364C25.6472 69.4827 24.3192 75.2249 23.0405 80.9752C22.856 81.8114 22.315 81.6392 21.7945 81.6392C21.2371 81.6392 20.6879 81.8073 20.4911 80.9097C19.5156 76.3889 18.45 71.8845 17.4335 67.3719C16.7859 64.4987 16.1711 61.6133 15.5359 58.736C15.5072 58.609 15.4129 58.4983 15.2285 58.1704C15.2039 58.6909 15.1793 58.9942 15.1793 59.3016C15.1793 68.3268 15.1793 77.352 15.1834 86.3814C15.1834 88.0741 14.462 88.8118 12.7898 88.8118C9.55184 88.8118 6.31392 88.8118 3.07601 88.8118C2.12102 88.8118 1.12915 87.9142 1.02669 86.9511C0.997995 86.6765 1.01849 86.4018 1.01849 86.1231C1.01849 58.5967 1.02259 31.0702 0.993896 3.5437C0.993896 2.55183 1.33408 1.81817 1.93249 1.146C2.10873 0.949261 2.45711 0.814006 2.72352 0.814006C7.03118 0.797611 11.3348 0.80171 15.6424 0.809907C15.7408 0.809907 15.8392 0.854992 16.0195 0.900077C17.8844 10.8885 19.7534 20.9015 21.6223 30.9144C21.7166 30.9144 21.8109 30.9185 21.9051 30.9226V30.9267Z" fill="white"></path><path d="M110.715 35.0459C113.047 23.582 115.379 12.1181 117.72 0.600971C121.023 0.600971 124.253 0.600971 127.487 0.600971C129.347 0.600971 131.208 0.600971 133.069 0.600971C134.225 0.600971 135.36 1.98221 135.102 3.17492C134.274 7.02762 133.413 10.8721 132.557 14.7208C131.798 18.1308 131.024 21.5327 130.265 24.9428C129.13 30.062 127.978 35.173 126.909 40.3045C126.728 41.1693 126.81 42.1366 126.97 43.0178C128.11 49.3215 129.302 55.613 130.479 61.9085C131.442 67.0605 132.401 72.2166 133.372 77.3685C133.88 80.0573 134.34 82.7624 134.967 85.4265C135.27 86.7175 134.794 87.6274 134.053 88.5168C133.905 88.6931 133.585 88.8038 133.344 88.8038C127.835 88.8202 122.326 88.8161 116.687 88.8161C114.777 77.1185 112.867 65.4456 110.961 53.7768C110.871 53.7686 110.781 53.7645 110.69 53.7563C110.658 54.0801 110.596 54.408 110.596 54.7317C110.596 65.2038 110.596 75.6758 110.596 86.1519C110.596 87.9676 109.744 88.8161 107.911 88.8161C103.776 88.8161 99.6445 88.8161 95.509 88.8161C93.9023 88.8161 92.9146 87.8365 92.9146 86.238C92.9146 75.7291 92.9146 65.2243 92.9146 54.7154C92.9146 37.5584 92.9146 20.4015 92.9146 3.2446C92.9146 1.52317 93.8326 0.592773 95.5213 0.592773C99.7921 0.600971 104.063 0.600971 108.338 0.600971C109.584 0.600971 110.584 1.57645 110.588 2.84293C110.6 5.70376 110.588 8.56051 110.588 11.4214C110.588 18.6227 110.588 25.8199 110.588 33.0212C110.588 33.6975 110.588 34.3738 110.588 35.0459H110.719H110.715Z" fill="white"></path><path d="M65.3386 34.6852C67.5313 23.541 69.72 12.3968 71.921 1.21162C75.1097 1.21162 78.1714 1.21162 81.2331 1.21162C82.9545 1.21162 84.676 1.21162 86.4015 1.21162C87.6844 1.21162 88.791 2.59286 88.5164 3.88393C87.6803 7.80221 86.8236 11.7164 85.9793 15.6347C84.1554 24.1107 82.3315 32.5867 80.5199 41.0668C80.4339 41.4603 80.4216 41.8988 80.4912 42.2923C82.0569 51.0306 83.6267 59.7689 85.2211 68.499C86.2867 74.3273 87.3893 80.1515 88.4754 85.9797C88.7172 87.2872 87.5409 88.7463 86.2416 88.7463C81.5241 88.7463 76.8025 88.7463 72.0849 88.7463H70.9209C69.0888 77.1308 67.269 65.5726 65.4451 54.0103C65.3345 54.0226 65.2238 54.0349 65.1131 54.0431C65.1131 54.4407 65.1131 54.8342 65.1131 55.2317C65.1131 65.5316 65.1131 75.8315 65.1131 86.1314C65.1131 87.7831 64.1377 88.7422 62.4654 88.7422C58.5717 88.7422 54.6821 88.7422 50.7884 88.7422C49.1653 88.7422 48.2021 87.7872 48.2021 86.1724C48.2021 71.9788 48.2021 57.7893 48.2021 43.5957C48.2021 30.3324 48.2021 17.0733 48.2021 3.81016C48.2021 2.07643 49.0752 1.20752 50.8171 1.20752C54.7436 1.20752 58.6701 1.20752 62.5966 1.20752C64.1664 1.20752 65.1131 2.14611 65.1131 3.70769C65.1131 13.6633 65.1131 23.6189 65.1131 33.5745V34.6934L65.3427 34.6811L65.3386 34.6852Z" fill="white"></path><path d="M30.8895 113.199C30.8895 117.986 30.8895 122.774 30.8895 127.561C30.8895 130.79 29.4304 132.807 26.3032 133.688C25.258 133.983 24.1391 134.135 23.0488 134.147C18.2616 134.196 13.4744 134.196 8.6913 134.155C6.49442 134.135 4.39184 133.717 2.66221 132.176C1.44901 131.094 0.879302 129.737 0.875203 128.155C0.858809 118.134 0.85471 108.113 0.875203 98.0915C0.879302 95.4807 2.61713 93.5256 5.55993 92.8493C6.71985 92.5829 7.93714 92.4518 9.12985 92.4436C14.0892 92.4149 19.0486 92.3862 24.0038 92.5132C26.3441 92.5706 28.6353 93.169 29.996 95.3331C30.5125 96.1569 30.8363 97.2472 30.8526 98.2227C30.9346 103.215 30.8895 108.207 30.8895 113.203V113.199ZM17.8067 125.634V101.124H13.9417V125.634H17.8067Z" fill="white"></path><path d="M52.1575 101.559V109.359C52.51 109.379 52.8379 109.408 53.1658 109.412C55.8873 109.412 58.6088 109.412 61.3262 109.412C62.8918 109.412 63.482 110.006 63.482 111.531C63.482 113.047 63.482 114.56 63.482 116.076C63.482 117.306 62.8181 117.982 61.5434 117.99C58.8219 118.007 56.1004 117.994 53.383 117.994H52.1206V119.158C52.1206 123.569 52.1206 127.975 52.1206 132.385C52.1206 133.446 51.5632 134.118 50.4771 134.127C46.0013 134.159 41.5215 134.159 37.0456 134.127C35.9144 134.118 35.3816 133.446 35.3816 132.282C35.3816 119.679 35.3816 107.071 35.3816 94.4682C35.3816 93.0951 35.9554 92.4926 37.3489 92.4844C39.968 92.468 42.5831 92.4803 45.2021 92.4803C51.264 92.4803 57.3259 92.5049 63.3837 92.4557C64.2485 92.4475 64.5764 92.7549 64.8018 93.5132C65.3838 95.4887 66.0232 97.4438 66.6544 99.4029C67.1134 100.825 66.5888 101.555 65.0354 101.559C61.8344 101.571 58.6292 101.559 55.4282 101.559C54.3667 101.559 53.3051 101.559 52.1534 101.559H52.1575Z" fill="white"></path><path d="M86.6886 101.706V109.764C89.3855 109.764 92.0292 109.764 94.6687 109.764C95.2548 109.764 95.8409 109.74 96.4229 109.768C97.55 109.822 98.0214 110.313 98.0214 111.408C98.0214 113.027 98.0214 114.646 98.0214 116.265C98.0214 117.597 97.464 118.162 96.1114 118.166C93.3571 118.175 90.6028 118.166 87.8486 118.166C87.4797 118.166 87.1108 118.166 86.6313 118.166C86.6313 118.65 86.6313 119.019 86.6313 119.388C86.6313 123.798 86.6313 128.204 86.6313 132.614C86.6313 133.692 86.0861 134.331 84.9836 134.335C80.5079 134.364 76.0322 134.364 71.5524 134.335C70.3719 134.327 69.8596 133.729 69.8596 132.544C69.8596 119.904 69.8596 107.264 69.8596 94.6279C69.8596 93.3532 70.4785 92.722 71.786 92.6974C72.8516 92.6769 73.9214 92.6933 74.987 92.6933C82.7007 92.6933 90.4143 92.7097 98.1279 92.6687C98.8698 92.6687 99.1403 92.9064 99.337 93.5581C99.9682 95.6607 100.657 97.7469 101.325 99.8372C101.677 100.948 101.19 101.661 99.9805 101.694C98.4312 101.731 96.882 101.702 95.3327 101.706C92.48 101.706 89.6274 101.706 86.6845 101.706H86.6886Z" fill="white"></path><path d="M104.858 98.5669C107.559 98.0546 110.104 97.5709 112.65 97.0832C112.65 97.034 112.641 96.9807 112.637 96.9315C110.485 96.9315 108.334 96.8987 106.182 96.9479C105.227 96.9684 104.751 96.6938 104.846 95.661C104.907 94.9765 104.899 94.2797 104.846 93.5952C104.788 92.8247 105.182 92.5378 105.862 92.4845C106.104 92.464 106.346 92.4763 106.584 92.4763C115.506 92.4763 124.429 92.4763 133.348 92.4763C134.942 92.4763 134.971 92.5091 134.971 94.0953C134.971 95.9561 134.971 97.8168 134.971 99.6776C134.971 101.165 134.221 102.153 132.774 102.481C132.11 102.629 131.413 102.719 130.733 102.723C126.29 102.743 121.847 102.735 117.4 102.731C116.236 102.731 115.137 102.559 114.338 101.559C114.215 101.407 113.863 101.333 113.641 101.379C111.252 101.846 108.867 102.329 106.485 102.842C105.178 103.125 104.854 102.903 104.85 101.616C104.85 100.62 104.85 99.6284 104.85 98.571L104.858 98.5669ZM119.962 98.2636H128.729V97.0094H119.962V98.2636Z" fill="white"></path><path d="M120.191 103.256C123.806 103.256 127.421 103.239 131.04 103.272C131.749 103.276 132.491 103.371 133.163 103.584C134.557 104.018 135.09 104.817 135.102 106.264C135.11 107.469 135.102 108.674 135.102 109.879C135.102 111.728 134.356 112.662 132.528 113.019C131.856 113.15 131.163 113.207 130.479 113.211C123.593 113.224 116.703 113.244 109.817 113.195C108.776 113.187 107.719 112.925 106.702 112.65C105.481 112.318 104.965 111.383 104.961 110.15C104.956 108.945 104.952 107.74 104.961 106.535C104.973 104.805 105.616 103.932 107.301 103.498C107.924 103.338 108.592 103.272 109.24 103.268C112.891 103.248 116.539 103.26 120.191 103.26V103.256ZM128.819 107.592H111.277V108.797H128.819V107.592Z" fill="white"></path><path d="M120.043 124.847C124.589 124.847 129.134 124.847 133.68 124.847C135.045 124.847 135.102 124.901 135.102 126.22C135.102 127.909 135.106 129.593 135.102 131.282C135.098 132.811 134.516 133.581 133.016 133.889C132.212 134.057 131.376 134.131 130.557 134.131C123.806 134.151 117.06 134.151 110.309 134.131C109.35 134.131 108.379 134.045 107.436 133.881C105.784 133.594 105.071 132.684 105.063 131.024C105.059 129.372 105.116 127.716 105.042 126.065C104.997 125.073 105.399 124.827 106.301 124.831C110.879 124.86 115.461 124.843 120.039 124.843L120.043 124.847ZM128.81 129.003H111.293V129.995H128.81V129.003Z" fill="white"></path><path d="M104.96 120.216C106.23 120.113 107.349 120.023 108.509 119.933V118.228C107.333 118.101 106.165 117.974 104.96 117.839C104.96 116.732 105.005 115.736 104.948 114.748C104.898 113.883 105.333 113.625 106.067 113.699C108.288 113.92 110.505 114.162 112.723 114.404C115.62 114.72 118.518 115.039 121.416 115.367C124.822 115.752 128.228 116.15 131.634 116.535C132.519 116.634 133.417 116.67 134.29 116.83C134.548 116.88 134.93 117.24 134.946 117.474C135.012 118.671 134.978 119.872 134.978 121.167C133.486 121.363 132.068 121.572 130.646 121.728C126.113 122.228 121.576 122.708 117.039 123.2C113.391 123.597 109.743 123.999 106.095 124.396C105.337 124.478 104.923 124.232 104.96 123.376C105.005 122.351 104.972 121.322 104.972 120.22L104.96 120.216ZM117.69 119.15C117.686 119.08 117.682 119.007 117.674 118.937C116.727 118.839 115.784 118.708 114.834 118.675C114.649 118.667 114.448 119.044 114.256 119.24C114.329 119.302 114.403 119.367 114.481 119.429C115.551 119.335 116.621 119.24 117.69 119.146V119.15Z" fill="white"></path></svg>